<?xml version="1.0" encoding="UTF-8" standalone="no"?>
<svg width="318px" height="138px" viewBox="0 0 318 138" version="1.1" xmlns="http://www.w3.org/2000/svg" xmlns:xlink="http://www.w3.org/1999/xlink">
    <!-- Generator: Sketch 44.1 (41455) - http://www.bohemiancoding.com/sketch -->
    <title>Meiji_logo</title>
    <desc>Created with Sketch.</desc>
    <defs>
        <path d="M261.51,87.06 C261.51,91.46 261.55,93.82 261.19,97.37 C259.59,113.73 246.61,119.89 234.54,119.89 C221.07,119.89 213.54,112.71 212.17,108.24 C211.88,107.31 212.23,106.6 212.89,106.3 C213.43,106.05 214.09,106.14 215.25,106.53 C220.04,108.11 226.81,108.02 231.35,105.4 C236.77,102.28 237.8,98.53 237.8,85.18 L237.8,37.96 C237.8,34.48 239.29,33 242.77,33 L256.54,33 C260.01,33 261.51,34.49 261.51,37.96 L261.51,87.06 Z M249.66,23.71 C256.21,23.71 261.51,18.4 261.51,11.86 C261.51,5.31 256.21,0 249.66,0 C243.11,0 237.8,5.31 237.8,11.86 C237.8,18.41 243.11,23.71 249.66,23.71 L249.66,23.71 Z M164.58,52.75 L141.29,52.75 C141.92,48.53 145.89,41.98 154.22,41.98 C161.95,41.98 164.9,48.86 164.58,52.75 L164.58,52.75 Z M153.9,27.98 C131.49,27.98 115.11,41.22 115.11,61.43 C115.11,81.45 129.11,93.92 149.14,95.27 C157.82,95.86 173.42,95.42 182.21,82.86 C184.15,79.93 185.04,76.89 184.93,75.18 C184.86,74.05 183.78,73.47 182.64,73.91 C181.66,74.29 171.61,81.21 157.66,79.34 C149.26,78.22 141.4,72.69 140.99,64.43 L182.78,64.43 C186.26,64.43 187.75,62.93 187.75,59.47 C187.75,43.97 175.61,27.98 153.9,27.98 L153.9,27.98 Z M198.92,11.86 C198.93,5.31 204.23,0 210.77,0 C217.32,0 222.63,5.31 222.63,11.86 C222.63,18.41 217.32,23.71 210.77,23.71 C204.22,23.71 198.93,18.4 198.93,11.86 L198.92,11.86 Z M222.63,87 L222.63,37.97 C222.63,34.49 221.13,33.01 217.67,33.01 L203.9,33.01 C200.43,33.01 198.94,34.5 198.94,37.97 L198.94,87 C198.94,90.48 200.43,91.97 203.9,91.97 L217.67,91.97 C221.15,91.97 222.63,90.52 222.63,87 L222.63,87 Z M295.04,91.97 L281.26,91.97 C277.78,91.97 276.3,90.48 276.3,87 L276.3,37.97 C276.3,34.49 277.79,33.01 281.26,33.01 L295.04,33.01 C298.5,33.01 300,34.5 300,37.97 L300,86.97 C300,90.48 298.51,91.97 295.04,91.97 L295.04,91.97 Z M288.15,23.72 C294.7,23.72 300,18.41 300,11.87 C300,5.31 294.69,0 288.15,0 C281.6,0 276.29,5.31 276.29,11.86 C276.29,18.41 281.6,23.71 288.15,23.71 L288.15,23.72 Z M103.83,58.8 L103.83,87 C103.83,90.48 102.34,91.97 98.86,91.97 L85.09,91.97 C81.62,91.97 80.12,90.48 80.12,87 L80.12,62.75 C80.12,53.71 76.98,50.05 71.52,49.91 C69.3,49.85 65.93,50.88 63.22,52.38 C63.22,52.38 64.12,56.2 63.91,78.97 L63.91,87 C63.91,90.48 62.42,91.97 58.95,91.97 L45.18,91.97 C41.7,91.97 40.22,90.48 40.22,87 L40.22,62.75 C40.22,53.71 37.07,50.05 31.61,49.91 C29.4,49.85 26.48,50.67 23.76,52.15 L23.76,86.99 C23.76,90.47 22.27,91.96 18.8,91.96 L5.03,91.96 C1.55,91.96 0.06,90.47 0.06,86.99 L0.06,38.27 C0.06,35.13 -0.21,31.86 0.8,30.85 C1.91,29.75 3.66,30.03 5.23,31.03 C7.75,32.61 12.69,34.67 17.47,34.67 C21.24,34.67 23.42,34.26 30.25,32.44 C37.22,30.63 41.01,29.2 44.91,28.96 C52.54,28.48 59.94,31.25 61.01,36.75 C69.51,31.3 76.37,29.92 83.19,29.92 C88.63,29.92 93.78,31.59 97.13,34.66 C102.57,39.41 103.85,45.95 103.85,58.78 L103.83,58.8 Z" id="path-1"></path>
    </defs>
    <g id="Page-1" stroke="none" stroke-width="1" fill="none" fill-rule="evenodd">
        <g id="Meiji_logo" transform="translate(9.000000, 9.000000)" fill-rule="nonzero">
            <g id="Shape">
                <use fill="#ED1C24" fill-rule="evenodd" xlink:href="#path-1"></use>
                <path stroke="#FFFFFF" stroke-width="9" d="M266.01,87.06 C266.01,87.3940064 266.010181,87.6746468 266.010659,88.2078136 C266.013459,91.3306809 266.003999,92.4411106 265.943391,93.9499736 C265.891935,95.2309818 265.804537,96.4681251 265.668632,97.8080081 C263.989987,114.972161 250.976424,124.39 234.54,124.39 C221.148782,124.39 210.323772,117.572778 207.874019,109.579607 C206.942581,106.59258 208.194885,103.491079 210.999444,102.216399 C212.869751,101.350516 214.469312,101.520006 216.659635,102.256485 C220.652839,103.573659 226.006602,103.288062 229.104988,101.50001 C232.615567,99.4791603 233.3,97.2858633 233.3,85.18 L233.3,37.96 C233.3,31.9942832 236.805135,28.5 242.77,28.5 L256.54,28.5 C262.494858,28.5 266.01,32.0042761 266.01,37.96 L266.01,87.06 Z M249.66,28.21 C240.623982,28.21 233.3,20.8945488 233.3,11.86 C233.3,2.82471863 240.624719,-4.5 249.66,-4.5 C258.694549,-4.5 266.01,2.82398233 266.01,11.86 C266.01,20.8881492 258.692416,28.21 249.66,28.21 Z M148.829599,48.25 L141.29,48.25 L141.29,52.75 L145.740677,53.4144375 C146.035869,51.4371207 147.130887,49.5536583 148.829599,48.25 Z M158.524643,48.25 C159.636037,49.3924266 160.214438,50.9309626 160.095149,52.3810662 L164.58,52.75 L164.58,48.25 L158.524643,48.25 Z M158.524643,48.25 L148.829599,48.25 C150.245066,47.1637151 152.079691,46.48 154.22,46.48 C156.021955,46.48 157.499872,47.1966153 158.524643,48.25 Z M147.190248,68.93 C149.351138,71.9677059 153.377939,74.2292351 158.257878,74.8798944 C164.284485,75.6877622 169.926728,74.7331102 175.136518,72.6097284 C177.199905,71.7687428 181.087503,69.6855337 181.01966,69.7118459 C184.86968,68.2258731 189.153517,70.5775345 189.420718,74.8911234 C189.612111,77.8664062 188.26533,81.8657097 185.962088,85.3443177 L185.896819,85.4401865 C181.236894,92.0987377 174.671856,96.2641833 166.78249,98.3471576 C161.038122,99.8638028 155.129725,100.187519 148.837391,99.7598138 C125.966818,98.2183623 110.61,83.4114865 110.61,61.43 C110.61,38.8639244 128.788006,23.48 153.9,23.48 C176.453851,23.48 192.25,39.7879179 192.25,59.47 C192.25,65.4202814 188.740281,68.93 182.78,68.93 L147.190248,68.93 Z M195.056249,16.36 L194.413125,16.36 L194.420005,11.8531298 C194.433794,2.82132781 201.746594,-4.5 210.77,-4.5 C219.805281,-4.5 227.13,2.82471863 227.13,11.86 C227.13,20.8945488 219.806018,28.21 210.77,28.21 C203.299487,28.21 197.008052,23.2011258 195.056249,16.36 Z M227.13,87 C227.13,92.9957182 223.644895,96.47 217.67,96.47 L203.9,96.47 C197.942003,96.47 194.44,92.9625671 194.44,87 L194.44,37.97 C194.44,32.0147186 197.944719,28.51 203.9,28.51 L217.67,28.51 C223.619865,28.51 227.13,32.0092677 227.13,37.97 L227.13,87 Z M295.04,96.47 L281.26,96.47 C275.294283,96.47 271.8,92.964865 271.8,87 L271.8,37.97 C271.8,32.0069992 275.302429,28.51 281.26,28.51 L295.04,28.51 C300.987567,28.51 304.5,32.0169957 304.5,37.97 L304.5,86.97 C304.5,92.9544547 301.006122,96.47 295.04,96.47 Z M283.65,27.584118 C276.802459,25.6316448 271.79,19.3340889 271.79,11.86 C271.79,2.82471863 279.114719,-4.5 288.15,-4.5 C297.179546,-4.5 304.5,2.82898567 304.5,11.87 C304.5,20.8981492 297.182416,28.22 288.15,28.22 L283.65,28.22 L283.65,27.584118 Z M108.33,60.663961 L108.33,87 C108.33,92.9652814 104.825281,96.47 98.86,96.47 L85.09,96.47 C79.1324287,96.47 75.62,92.9630001 75.62,87 L75.62,62.75 C75.62,56.28059 74.341576,54.4838271 71.3984228,54.4083574 C70.6198693,54.3873154 69.3651319,54.6623343 68.0317092,55.1380995 C68.0452841,55.3355821 68.058764,55.5412669 68.0721365,55.7554434 C68.370876,60.5401315 68.5106793,68.0742364 68.41,78.97 L68.41,87 C68.41,92.9625671 64.9079965,96.47 58.95,96.47 L45.18,96.47 C39.2142832,96.47 35.72,92.964865 35.72,87 L35.72,62.75 C35.72,56.2847653 34.4365125,54.4839537 31.4878731,54.4083425 C30.6470592,54.3855149 29.4987649,54.6118024 28.26,55.0514733 L28.26,86.99 C28.26,92.9525671 24.7579965,96.46 18.8,96.46 L5.03,96.46 C-0.935281374,96.46 -4.44,92.9552814 -4.44,86.99 L-4.44,38.27 C-4.44,38.118811 -4.44068011,37.9608195 -4.44200748,37.792287 C-4.44438304,37.4906697 -4.44779682,37.2323162 -4.45587185,36.6978803 C-4.48747053,34.6065625 -4.4818945,33.7590712 -4.38821357,32.694352 C-4.20401552,30.6008712 -3.73388763,29.0199266 -2.36754999,27.6536541 C0.455526904,24.8560103 4.37078548,25.1474374 7.62043256,27.2174114 C10.1817197,28.8232978 14.2407275,30.17 17.47,30.17 C20.6927932,30.17 22.4671829,29.8568724 29.1189354,28.0844641 C31.2719038,27.5253719 37.0764144,25.8960003 37.3308018,25.8276407 C40.1470795,25.0708443 42.1155845,24.6695814 44.1522433,24.503009 C44.3130036,24.4898608 44.4734077,24.4783546 44.6274655,24.4688783 C52.1419778,23.9961436 59.0822032,26.1157825 62.8079704,30.4839372 C69.6121497,26.8817375 76.0007635,25.42 83.19,25.42 C89.757464,25.42 95.9395584,27.4886536 100.129448,31.30506 C106.512222,36.9007937 108.35,43.9746717 108.35,58.78 L108.35,60.643961 L108.33,60.663961 Z"></path>
            </g>
        </g>
    </g>
</svg>